# Blender v2.79 (sub 0) OBJ File: 'materials-tutorial2.blend'
# www.blender.org
mtllib textured-cube.mtl
o Cube_Cube.003
v -1.207460 -3.030546 2.179516
v -1.207460 -3.030546 4.683941
v -1.207460 -0.526121 2.179516
v -1.207460 -0.526121 4.683941
v 1.296965 -3.030546 2.179516
v 1.296965 -3.030546 4.683941
v 1.296965 -0.526121 2.179516
v 1.296965 -0.526121 4.683941
vt 0.500000 0.250043
vt 0.749957 0.250043
vt 0.749957 0.500000
vt 0.500000 0.500000
vt 0.749957 0.749957
vt 0.500000 0.749957
vt 0.250043 0.500000
vt 0.000087 0.500000
vt 0.000087 0.250043
vt 0.250043 0.250043
vt 0.500000 0.000087
vt 0.749957 0.000087
vt 0.999913 0.500000
vt 0.999913 0.250043
vn -1.0000 0.0000 0.0000
vn 0.0000 1.0000 0.0000
vn 1.0000 0.0000 0.0000
vn 0.0000 -1.0000 0.0000
vn 0.0000 0.0000 -1.0000
vn 0.0000 0.0000 1.0000
usemtl Material.009
s off
f 1/1/1 2/2/1 4/3/1 3/4/1
f 3/4/2 4/3/2 8/5/2 7/6/2
f 7/7/3 8/8/3 6/9/3 5/10/3
f 5/11/4 6/12/4 2/2/4 1/1/4
f 3/4/5 7/7/5 5/10/5 1/1/5
f 8/13/6 4/3/6 2/2/6 6/14/6
