# Blender v2.79 (sub 0) OBJ File: ''
# www.blender.org
mtllib zombie.mtl
o Cube
v -1.655731 1.655732 -0.191924
v 1.655732 1.655732 -0.191924
v 1.655731 -1.655732 -0.191924
v -1.655732 -1.655731 -0.191924
v -1.655731 1.655732 3.119539
v 1.655733 1.655730 3.119539
v 1.655731 -1.655732 3.119539
v -1.655732 -1.655731 3.119539
vt 0.021796 0.024401
vt 0.962578 0.024401
vt 0.962579 0.965183
vt 0.021796 0.965183
vt 1.020497 1.004872
vt 0.015961 1.004872
vt 0.015961 0.000337
vt 1.020497 0.000336
vt 1.002005 0.000599
vt 1.002005 0.999401
vt 0.003203 0.999401
vt 0.003204 0.000600
vt 0.999172 -0.006984
vt 0.999172 0.991359
vt 0.000828 0.991359
vt 0.000828 -0.006984
vt 0.992955 -0.000767
vt 0.992955 0.990351
vt 0.001837 0.990351
vt 0.001837 -0.000767
vt 0.003890 0.998468
vt 0.001532 0.014307
vt 0.985693 0.011949
vt 0.988051 0.996109
vn -0.0000 0.0000 -1.0000
vn 0.0000 0.0000 1.0000
vn 0.0000 1.0000 0.0000
vn 1.0000 -0.0000 -0.0000
vn -0.0000 -1.0000 -0.0000
vn -1.0000 0.0000 0.0000
usemtl Material.001
s off
f 1/1/1 2/2/1 3/3/1 4/4/1
f 5/5/2 8/6/2 7/7/2 6/8/2
f 1/9/3 5/10/3 6/11/3 2/12/3
f 2/13/4 6/14/4 7/15/4 3/16/4
f 3/17/5 7/18/5 8/19/5 4/20/5
f 5/21/6 1/22/6 4/23/6 8/24/6
