# Blender v2.79 (sub 0) OBJ File: ''
# www.blender.org
mtllib vehicle.mtl
o Cube.004
v -3.165812 1.701243 0.264100
v -3.165814 -1.772207 0.264099
v -3.374310 -1.772207 0.264099
v -3.374309 1.701243 0.264100
v -3.165813 1.701242 2.768549
v -3.374310 1.701242 2.342760
v -3.374311 -1.772207 2.342759
v -3.165815 -1.772207 2.768548
v 3.195868 1.701242 0.949715
v 3.195869 1.701241 1.474590
v 3.195866 -1.772208 1.474589
v 3.195867 -1.772208 1.002637
v -3.165815 -1.772206 1.002175
v -3.374311 -1.772206 1.002175
v -3.374310 1.701243 1.002176
v -3.165813 1.701243 1.002176
v 2.359593 1.701242 0.933985
v 2.359592 1.701243 0.264100
v 1.284338 1.701243 0.264100
v 1.284338 1.701242 1.002176
v 2.359592 -1.772207 0.999551
v 2.359590 -1.772208 1.474589
v 1.284336 -1.772208 2.768548
v 1.284337 -1.772207 1.002175
v 2.359594 1.701241 1.474590
v 1.284339 1.701241 2.768549
v 2.359592 -1.772207 0.264099
v 1.284337 -1.772207 0.264099
v -2.520334 1.701243 0.264100
v -2.520335 1.701243 1.002176
v -2.520337 -1.772207 2.768548
v -2.520336 -1.772207 1.002175
v -2.520335 1.701242 2.768549
v -2.520336 -1.772207 0.264099
v 3.195868 1.701243 0.264100
v 3.195868 -1.772207 0.264099
vn 0.0000 0.0000 -1.0000
vn -0.8981 0.0000 0.4398
vn 1.0000 -0.0000 0.0000
vn -0.0000 -1.0000 0.0000
vn -1.0000 0.0000 -0.0000
vn -0.0000 1.0000 0.0000
vn 0.7691 -0.0000 0.6391
vn 0.0000 -0.0000 1.0000
usemtl None
s 1
f 1//1 2//1 3//1 4//1
f 5//2 6//2 7//2 8//2
f 9//3 10//3 11//3 12//3
f 13//4 8//4 7//4 14//4
f 14//5 7//5 6//5 15//5
f 16//6 1//6 4//6 15//6
f 17//6 18//6 19//6 20//6
f 21//4 22//4 23//4 24//4
f 25//7 26//7 23//7 22//7
f 18//1 27//1 28//1 19//1
f 20//6 19//6 29//6 30//6
f 24//4 23//4 31//4 32//4
f 26//8 33//8 31//8 23//8
f 19//1 28//1 34//1 29//1
f 35//1 36//1 27//1 18//1
f 10//8 25//8 22//8 11//8
f 12//4 11//4 22//4 21//4
f 9//6 35//6 18//6 17//6
f 10//6 9//6 17//6 25//6
f 36//4 12//4 21//4 27//4
f 28//4 24//4 32//4 34//4
f 26//6 20//6 30//6 33//6
f 27//4 21//4 24//4 28//4
f 25//6 17//6 20//6 26//6
f 5//6 16//6 15//6 6//6
f 3//5 14//5 15//5 4//5
f 2//4 13//4 14//4 3//4
f 35//3 9//3 12//3 36//3
f 34//4 32//4 13//4 2//4
f 33//6 30//6 16//6 5//6
f 30//6 29//6 1//6 16//6
f 32//4 31//4 8//4 13//4
f 33//8 5//8 8//8 31//8
f 29//1 34//1 2//1 1//1
